<?xml version="1.0" encoding="iso-8859-1"?>
<!-- Generator: Adobe Illustrator 18.0.0, SVG Export Plug-In . SVG Version: 6.00 Build 0)  -->
<!DOCTYPE svg PUBLIC "-//W3C//DTD SVG 1.1//EN" "http://www.w3.org/Graphics/SVG/1.1/DTD/svg11.dtd">
<svg version="1.1" fill="blue" id="Capa_1" xmlns="http://www.w3.org/2000/svg" xmlns:xlink="http://www.w3.org/1999/xlink" x="0px" y="0px"
	 viewBox="0 0 473.306 473.306" style="enable-background:new 0 0 473.306 473.306;" xml:space="preserve">
<g>
	<path d="M236.638,0C106.155,0,0.007,106.162,0.007,236.661c0,130.483,106.148,236.645,236.631,236.645
		c130.499,0,236.661-106.163,236.661-236.645C473.299,106.162,367.137,0,236.638,0z M396.083,364.791
		c0.016-0.171,0.11-0.327,0.11-0.498c0-11.203-9.068-20.285-20.272-20.285c-11.201,0-20.269,9.082-20.269,20.285
		c0,11.187,9.068,20.253,20.269,20.253c0.889,0,1.637-0.389,2.478-0.498c-18.026,17.34-39.121,31.519-62.522,41.38
		c-1.356-9.877-9.473-17.605-19.725-17.605c-11.202,0-20.27,9.083-20.27,20.286c0,3.287,0.967,6.278,2.369,9.02
		c-9.909,2.056-20.129,3.148-30.506,3.708c2.898-3.505,4.861-7.821,4.861-12.728c0-11.203-9.068-20.286-20.271-20.286
		c-11.202,0-20.27,9.083-20.27,20.286c0,4.705,1.87,8.833,4.55,12.276c-10.003-0.981-19.709-2.867-29.244-5.234
		c0.825-2.213,1.418-4.55,1.418-7.042c0-11.203-9.068-20.286-20.271-20.286c-8.926,0-16.265,5.842-18.975,13.851
		c-28.293-13.384-53.082-32.937-72.495-57.086c0-0.109,0.063-0.187,0.063-0.295c0-8.85-5.749-16.189-13.665-18.945
		c-17.246-27.406-28.168-59.079-30.738-93.138c3.473,2.789,7.696,4.705,12.495,4.705c11.185,0,20.27-9.067,20.27-20.254
		c0-11.203-9.085-20.285-20.27-20.285c-4.799,0-9.022,1.916-12.495,4.705c2.57-34.057,13.506-65.732,30.754-93.137
		c7.899-2.757,13.648-10.08,13.648-18.914c0-0.141-0.016-0.219-0.016-0.359C96.495,84.537,121.267,65,149.545,51.631
		c2.71,7.993,10.049,13.835,18.975,13.835c11.203,0,20.271-9.066,20.271-20.253c0-2.508-0.593-4.845-1.418-7.058
		c9.52-2.368,19.241-4.253,29.244-5.234c-2.68,3.443-4.55,7.587-4.55,12.293c0,11.187,9.068,20.253,20.27,20.253
		c11.203,0,20.271-9.066,20.271-20.253c0-4.907-1.964-9.239-4.861-12.744c10.376,0.56,20.597,1.651,30.506,3.708
		c-1.402,2.757-2.369,5.733-2.369,9.036c0,11.187,9.068,20.253,20.27,20.253c10.252,0,18.369-7.712,19.725-17.589
		c23.385,9.861,44.481,24.024,62.506,41.366c-0.841-0.11-1.589-0.5-2.462-0.5c-11.201,0-20.269,9.083-20.269,20.286
		c0,11.187,9.068,20.253,20.269,20.253c11.203,0,20.272-9.066,20.272-20.253c0-0.187-0.095-0.343-0.11-0.53
		c25.209,31.316,41.304,70.156,44.513,112.581c-3.475-2.789-7.697-4.705-12.494-4.705c-11.188,0-20.271,9.083-20.271,20.285
		c0,11.187,9.084,20.254,20.271,20.254c4.797,0,9.02-1.916,12.494-4.705C437.387,294.634,421.308,333.49,396.083,364.791z"/>
	<path d="M216.383,236.661c0,11.187,9.084,20.254,20.271,20.254c11.186,0,20.269-9.067,20.269-20.254
		c0-11.203-9.084-20.285-20.269-20.285C225.467,216.376,216.383,225.458,216.383,236.661z"/>
	<path d="M152.567,236.661c0,11.187,9.085,20.254,20.271,20.254c11.185,0,20.269-9.067,20.269-20.254
		c0-11.203-9.084-20.285-20.269-20.285C161.651,216.376,152.567,225.458,152.567,236.661z"/>
	<path d="M88.751,236.661c0,11.187,9.085,20.254,20.271,20.254c11.185,0,20.269-9.067,20.269-20.254
		c0-11.203-9.084-20.285-20.269-20.285C97.835,216.376,88.751,225.458,88.751,236.661z"/>
	<path d="M280.199,236.661c0,11.187,9.084,20.254,20.271,20.254c11.185,0,20.27-9.067,20.27-20.254
		c0-11.203-9.084-20.285-20.27-20.285C289.283,216.376,280.199,225.458,280.199,236.661z"/>
	<path d="M364.285,216.376c-11.187,0-20.271,9.083-20.271,20.285c0,11.187,9.084,20.254,20.271,20.254
		c11.186,0,20.27-9.067,20.27-20.254C384.555,225.458,375.471,216.376,364.285,216.376z"/>
	<path d="M300.47,300.477c0-11.203-9.068-20.285-20.271-20.285c-11.201,0-20.27,9.083-20.27,20.285
		c0,11.187,9.068,20.253,20.27,20.253C291.401,320.73,300.47,311.664,300.47,300.477z"/>
	<path d="M236.654,300.477c0-11.203-9.068-20.285-20.271-20.285c-11.201,0-20.27,9.083-20.27,20.285
		c0,11.187,9.068,20.253,20.27,20.253C227.585,320.73,236.654,311.664,236.654,300.477z"/>
	<path d="M172.838,300.477c0-11.203-9.068-20.285-20.271-20.285c-11.201,0-20.27,9.083-20.27,20.285
		c0,11.187,9.068,20.253,20.27,20.253C163.77,320.73,172.838,311.664,172.838,300.477z"/>
	<path d="M109.022,300.477c0-11.203-9.068-20.285-20.271-20.285c-11.201,0-20.269,9.083-20.269,20.285
		c0,11.187,9.068,20.253,20.269,20.253C99.954,320.73,109.022,311.664,109.022,300.477z"/>
	<path d="M344.014,280.191c-11.201,0-20.27,9.083-20.27,20.285c0,11.187,9.068,20.253,20.27,20.253
		c11.203,0,20.271-9.066,20.271-20.253C364.285,289.274,355.217,280.191,344.014,280.191z"/>
	<path d="M407.83,280.191c-11.201,0-20.27,9.083-20.27,20.285c0,11.187,9.068,20.253,20.27,20.253
		c11.202,0,20.271-9.066,20.271-20.253C428.102,289.274,419.033,280.191,407.83,280.191z"/>
	<path d="M248.29,344.007c-11.201,0-20.269,9.082-20.269,20.285c0,11.187,9.068,20.253,20.269,20.253
		c11.203,0,20.271-9.066,20.271-20.253C268.562,353.089,259.493,344.007,248.29,344.007z"/>
	<path d="M184.475,344.007c-11.202,0-20.27,9.082-20.27,20.285c0,11.187,9.068,20.253,20.27,20.253
		c11.203,0,20.271-9.066,20.271-20.253C204.746,353.089,195.678,344.007,184.475,344.007z"/>
	<path d="M120.659,344.007c-11.202,0-20.27,9.082-20.27,20.285c0,11.187,9.068,20.253,20.27,20.253
		c11.203,0,20.271-9.066,20.271-20.253C140.93,353.089,131.862,344.007,120.659,344.007z"/>
	<path d="M312.106,344.007c-11.201,0-20.27,9.082-20.27,20.285c0,11.187,9.068,20.253,20.27,20.253
		c11.203,0,20.272-9.066,20.272-20.253C332.378,353.089,323.309,344.007,312.106,344.007z"/>
	<path d="M259.929,172.845c0,11.187,9.068,20.253,20.27,20.253c11.203,0,20.271-9.067,20.271-20.253
		c0-11.203-9.068-20.286-20.271-20.286C268.997,152.56,259.929,161.642,259.929,172.845z"/>
	<path d="M196.113,172.845c0,11.187,9.068,20.253,20.27,20.253c11.203,0,20.271-9.067,20.271-20.253
		c0-11.203-9.068-20.286-20.271-20.286C205.181,152.56,196.113,161.642,196.113,172.845z"/>
	<path d="M132.297,172.845c0,11.187,9.068,20.253,20.27,20.253c11.203,0,20.271-9.067,20.271-20.253
		c0-11.203-9.068-20.286-20.271-20.286C141.366,152.56,132.297,161.642,132.297,172.845z"/>
	<path d="M88.751,193.099c11.203,0,20.271-9.067,20.271-20.253c0-11.203-9.068-20.286-20.271-20.286
		c-11.201,0-20.269,9.083-20.269,20.286C68.481,184.032,77.55,193.099,88.751,193.099z"/>
	<path d="M323.745,172.845c0,11.187,9.068,20.253,20.27,20.253c11.203,0,20.271-9.067,20.271-20.253
		c0-11.203-9.068-20.286-20.271-20.286C332.813,152.56,323.745,161.642,323.745,172.845z"/>
	<path d="M407.83,193.099c11.202,0,20.271-9.067,20.271-20.253c0-11.203-9.069-20.286-20.271-20.286
		c-11.201,0-20.27,9.083-20.27,20.286C387.561,184.032,396.629,193.099,407.83,193.099z"/>
	<path d="M248.29,129.283c11.203,0,20.271-9.066,20.271-20.253c0-11.203-9.068-20.286-20.271-20.286
		c-11.201,0-20.269,9.083-20.269,20.286C228.021,120.216,237.089,129.283,248.29,129.283z"/>
	<path d="M184.475,129.283c11.203,0,20.271-9.066,20.271-20.253c0-11.203-9.068-20.286-20.271-20.286
		c-11.202,0-20.27,9.083-20.27,20.286C164.205,120.216,173.273,129.283,184.475,129.283z"/>
	<path d="M120.659,129.283c11.203,0,20.271-9.066,20.271-20.253c0-11.203-9.068-20.286-20.271-20.286
		c-11.202,0-20.27,9.083-20.27,20.286C100.389,120.216,109.457,129.283,120.659,129.283z"/>
	<path d="M312.106,129.283c11.203,0,20.272-9.066,20.272-20.253c0-11.203-9.068-20.286-20.272-20.286
		c-11.201,0-20.27,9.083-20.27,20.286C291.837,120.216,300.905,129.283,312.106,129.283z"/>
</g>
<g>
</g>
<g>
</g>
<g>
</g>
<g>
</g>
<g>
</g>
<g>
</g>
<g>
</g>
<g>
</g>
<g>
</g>
<g>
</g>
<g>
</g>
<g>
</g>
<g>
</g>
<g>
</g>
<g>
</g>
</svg>
